<?xml version="1.0" encoding="UTF-8"?>
<svg width="72px" height="79px" viewBox="0 0 72 79" version="1.1" xmlns="http://www.w3.org/2000/svg" xmlns:xlink="http://www.w3.org/1999/xlink">
    <!-- Generator: Sketch 53.2 (72643) - https://sketchapp.com -->
    <title>Group 12</title>
    <desc>Created with Sketch.</desc>
    <defs>
        <path d="M29.536,2.297 L6.086,15.836 C2.401,17.964 0.079,21.985 0.079,26.239 L0.079,26.239 L0.079,53.318 C0.079,57.573 2.401,61.593 6.085,63.72 L6.085,63.72 L29.536,77.26 C33.221,79.388 37.864,79.388 41.548,77.26 L41.548,77.26 C49.366,72.746 57.183,68.233 64.999,63.721 L64.999,63.721 C68.685,61.593 71.005,57.573 71.005,53.318 L71.005,53.318 L71.005,43.674 L66.642,43.674 L66.642,51.591 L58.85,51.591 L58.85,43.674 L54.759,43.674 C52.952,52.635 45.036,59.382 35.543,59.382 L35.543,59.382 C24.716,59.382 15.938,50.606 15.938,39.779 L15.938,39.779 C15.938,28.951 24.716,20.175 35.542,20.175 L35.542,20.175 C45.035,20.175 52.952,26.922 54.759,35.883 L54.759,35.883 L71.006,35.883 L71.006,26.239 C71.006,21.985 68.685,17.964 65,15.837 L65,15.837 L41.549,2.297 C39.706,1.233 37.625,0.701 35.543,0.701 L35.543,0.701 C33.461,0.701 31.379,1.233 29.536,2.297 M23.73,39.779 C23.73,46.302 29.019,51.591 35.543,51.591 L35.543,51.591 C42.066,51.591 47.355,46.303 47.355,39.779 L47.355,39.779 C47.355,33.255 42.065,27.966 35.542,27.966 L35.542,27.966 C29.019,27.967 23.73,33.255 23.73,39.779" id="path-1"></path>
        <linearGradient x1="83.529608%" y1="94.0306552%" x2="25.7127972%" y2="18.1054892%" id="linearGradient-3">
            <stop stop-color="#004DA0" offset="0%"></stop>
            <stop stop-color="#009EE8" offset="100%"></stop>
        </linearGradient>
    </defs>
    <g id="chaion" stroke="none" stroke-width="1" fill="none" fill-rule="evenodd">
        <g id="Group-12">
            <mask id="mask-2" fill="white">
                <use xlink:href="#path-1"></use>
            </mask>
            <g id="Clip-11"></g>
            <path d="M29.536,2.297 L6.086,15.836 C2.401,17.964 0.079,21.985 0.079,26.239 L0.079,26.239 L0.079,53.318 C0.079,57.573 2.401,61.593 6.085,63.72 L6.085,63.72 L29.536,77.26 C33.221,79.388 37.864,79.388 41.548,77.26 L41.548,77.26 C49.366,72.746 57.183,68.233 64.999,63.721 L64.999,63.721 C68.685,61.593 71.005,57.573 71.005,53.318 L71.005,53.318 L71.005,43.674 L66.642,43.674 L66.642,51.591 L58.85,51.591 L58.85,43.674 L54.759,43.674 C52.952,52.635 45.036,59.382 35.543,59.382 L35.543,59.382 C24.716,59.382 15.938,50.606 15.938,39.779 L15.938,39.779 C15.938,28.951 24.716,20.175 35.542,20.175 L35.542,20.175 C45.035,20.175 52.952,26.922 54.759,35.883 L54.759,35.883 L71.006,35.883 L71.006,26.239 C71.006,21.985 68.685,17.964 65,15.837 L65,15.837 L41.549,2.297 C39.706,1.233 37.625,0.701 35.543,0.701 L35.543,0.701 C33.461,0.701 31.379,1.233 29.536,2.297 M23.73,39.779 C23.73,46.302 29.019,51.591 35.543,51.591 L35.543,51.591 C42.066,51.591 47.355,46.303 47.355,39.779 L47.355,39.779 C47.355,33.255 42.065,27.966 35.542,27.966 L35.542,27.966 C29.019,27.967 23.73,33.255 23.73,39.779" id="Fill-10" fill="url(#linearGradient-3)" mask="url(#mask-2)"></path>
        </g>
    </g>
</svg>