<?xml version="1.0" encoding="UTF-8"?>
<svg width="24px" height="23px" viewBox="0 0 24 23" version="1.1" xmlns="http://www.w3.org/2000/svg" xmlns:xlink="http://www.w3.org/1999/xlink">
    <!-- Generator: Sketch 52.6 (67491) - http://www.bohemiancoding.com/sketch -->
    <title>25231</title>
    <desc>Created with Sketch.</desc>
    <g id="Welcome" stroke="none" stroke-width="1" fill="none" fill-rule="evenodd">
        <g id="Home_v4@2x" transform="translate(-817.000000, -5489.000000)" fill="#2C80FF">
            <g id="Group-20" transform="translate(493.000000, 5419.000000)">
                <g id="Group-25" transform="translate(35.000000, 70.000000)">
                    <g id="25231" transform="translate(289.000000, 0.000000)">
                        <path d="M22.3902806,5.87114417 C21.3172073,4.06498565 19.8616519,2.63504743 18.0232313,1.58100696 C16.1845371,0.526912717 14.1772311,0 11.9998905,0 C9.8228236,0 7.81486093,0.527074 5.97654978,1.58100696 C4.137965,2.63499367 2.68246433,4.06498565 1.60939103,5.87114417 C0.53648192,7.67724892 0,9.6495293 0,11.7879315 C0,14.3566377 0.762884623,16.6664842 2.28903695,18.7180622 C3.81502511,20.7698015 5.78637589,22.1895251 8.20292512,22.9773943 C8.4842183,23.0286824 8.69245188,22.9926087 8.82784474,22.8700871 C8.96329233,22.7474042 9.03093404,22.5937549 9.03093404,22.4097844 C9.03093404,22.3790868 9.02825245,22.1029159 9.02305345,21.5809492 C9.01769028,21.0589826 9.01517287,20.6036259 9.01517287,20.2150943 L8.65578525,20.2761669 C8.42664624,20.3174017 8.13758192,20.3348741 7.7885923,20.329928 C7.43976687,20.3251433 7.07764294,20.2892309 6.70271306,20.2224596 C6.327619,20.1562796 5.97873883,20.0027916 5.65579894,19.7623181 C5.33302322,19.5218447 5.1038842,19.2070733 4.96843661,18.818488 L4.81219302,18.4652774 C4.70804887,18.2301263 4.54408888,17.968901 4.32009413,17.6825693 C4.09609938,17.3959688 3.86958723,17.2016761 3.64044821,17.0993687 L3.53105033,17.0224365 C3.4581549,16.9713097 3.3905132,16.9096457 3.32796103,16.8380897 C3.2654636,16.7665336 3.21867261,16.6949238 3.1874239,16.6232065 C3.15612045,16.5514354 3.18206072,16.492567 3.26551833,16.4463862 C3.34897593,16.4002054 3.49980162,16.377787 3.71865209,16.377787 L4.03102981,16.4236452 C4.23937284,16.4646649 4.49707898,16.5871865 4.80447661,16.7919626 C5.11171006,16.9965774 5.36427193,17.2625874 5.56221696,17.5898851 C5.80191816,18.0095444 6.09070884,18.3293155 6.42940991,18.5493598 C6.76783735,18.7694041 7.10905583,18.879238 7.452737,18.879238 C7.79641816,18.879238 8.09325362,18.8536477 8.34335281,18.802736 C8.59317837,18.7515554 8.82757111,18.6746232 9.04642158,18.5723696 C9.14016774,17.8864852 9.3954112,17.3595725 9.81193307,16.9912551 C9.21826217,16.9299674 8.68451656,16.8376596 8.21042262,16.7149229 C7.73660232,16.592025 7.24696611,16.3925713 6.74184236,16.1160241 C6.23644498,15.8398532 5.81718679,15.4969111 5.48395835,15.0877889 C5.15067519,14.6784518 4.87715314,14.1410557 4.66377529,13.4760844 C4.450288,12.8108443 4.34351699,12.0434581 4.34351699,11.1737108 C4.34351699,9.9353234 4.75505876,8.88149797 5.57797814,8.01164308 C5.19248608,7.08060804 5.22887907,6.03688969 5.68726656,4.88059557 C5.98935573,4.78839525 6.43734523,4.85758581 7.03101613,5.08773716 C7.62479649,5.31799602 8.05954221,5.51524557 8.33569112,5.67878689 C8.61184004,5.84227445 8.83309847,5.98081685 8.99979478,6.09317758 C9.96872392,5.82722133 10.9686281,5.69421633 11.9997811,5.69421633 C13.030934,5.69421633 14.0310572,5.82722133 15.000041,6.09317758 L15.5937667,5.72496769 C15.9997811,5.47927938 16.4792382,5.25412782 17.0309888,5.04945924 C17.5830677,4.84489819 18.0052264,4.78855654 18.297027,4.88075685 C18.7655936,6.03710474 18.8073497,7.08076932 18.4217482,8.01180436 C19.2446129,8.88165925 19.6563188,9.93575349 19.6563188,11.173872 C19.6563188,12.0436194 19.5491647,12.8134248 19.3360058,13.4837722 C19.1225732,14.1542271 18.846698,14.6910857 18.5082705,15.0954768 C18.16946,15.4998142 17.7475202,15.8400683 17.2423965,16.1161854 C16.7371633,16.3925175 16.2473629,16.5919713 15.7735426,16.7148692 C15.2995034,16.8377671 14.7657578,16.9301287 14.1720869,16.9915239 C14.7135489,17.4518266 14.9843346,18.1784081 14.9843346,19.1709458 L14.9843346,22.4093543 C14.9843346,22.5933249 15.0494589,22.7469204 15.1798169,22.869657 C15.3100108,22.9921786 15.5156175,23.0282523 15.7969107,22.9769104 C18.2137883,22.1891488 20.1851391,20.7693714 21.7110725,18.7176321 C23.2368417,16.6660541 24,14.3562076 24,11.7875014 C23.9994527,9.64936801 23.4626972,7.67724892 22.3902806,5.87114417 Z" id="Path"></path>
                    </g>
                </g>
            </g>
        </g>
    </g>
</svg>