<?xml version="1.0" encoding="UTF-8"?>
<svg width="25px" height="22px" viewBox="0 0 25 22" version="1.1" xmlns="http://www.w3.org/2000/svg" xmlns:xlink="http://www.w3.org/1999/xlink">
    <!-- Generator: Sketch 53.2 (72643) - https://sketchapp.com -->
    <title>noun_Media Folder_1012374</title>
    <desc>Created with Sketch.</desc>
    <g id="Welcome" stroke="none" stroke-width="1" fill="none" fill-rule="evenodd">
        <g id="Home_v7@2x" transform="translate(-949.000000, -5609.000000)" fill="#2C80FF" fill-rule="nonzero">
            <g id="Group-27" transform="translate(-876.000000, -116.000000)">
                <g id="Group-26" transform="translate(383.000000, 196.000000)">
                    <g id="Group-20" transform="translate(895.000000, 5459.000000)">
                        <g id="Group-25" transform="translate(0.000000, 70.000000)">
                            <g id="noun_Media-Folder_1012374" transform="translate(547.000000, 0.000000)">
                                <path d="M0,19.6428571 C3.46944695e-16,20.9446712 1.04933262,22 2.34375,22 L22.65625,22 C23.9506674,22 25,20.9446712 25,19.6428571 L25,6.28571429 C25,4.98390023 23.9506674,3.92857143 22.65625,3.92857143 L13.28125,3.92857143 L10.9375,0 L2.34375,0 C1.04933262,0 3.46944695e-16,1.0553288 2.31296463e-16,2.35714286 L0,19.6428571 Z M10.15625,12.5714286 L10.15625,9.21642857 C10.1499827,8.9164632 10.314121,8.63909408 10.5792713,8.50158599 C10.8444216,8.3640779 11.1642907,8.39043875 11.4036458,8.56952381 L16.0755208,11.9245238 C16.2859566,12.0713316 16.4114831,12.3125472 16.4114831,12.570119 C16.4114831,12.8276909 16.2859566,13.0689065 16.0755208,13.2157143 L11.4036458,16.5733333 C11.1642907,16.7524184 10.8444216,16.7787792 10.5792713,16.6412712 C10.314121,16.5037631 10.1499827,16.2263939 10.15625,15.9264286 L10.15625,12.5714286 Z" id="Shape"></path>
                            </g>
                        </g>
                    </g>
                </g>
            </g>
        </g>
    </g>
</svg>