<?xml version="1.0" encoding="UTF-8"?>
<svg width="256px" height="256px" viewBox="0 0 256 256" version="1.1" xmlns="http://www.w3.org/2000/svg" xmlns:xlink="http://www.w3.org/1999/xlink">
    <!-- Generator: Sketch 53.2 (72643) - https://sketchapp.com -->
    <title>telegram</title>
    <desc>Created with Sketch.</desc>
    <g id="Archive" stroke="none" stroke-width="1" fill="none" fill-rule="evenodd">
        <g id="telegram" fill-rule="nonzero">
            <circle id="Oval" fill="#2C80FF" cx="128" cy="128" r="128"></circle>
            <path d="M191.8585,66.76 C196.9615,64.769 202.2365,69.234 201.116,74.595 L178.231,183.9855 C177.162,189.114 171.137,191.424 166.9135,188.321 L132.3665,162.9625 L114.757,180.943 C111.6625,184.098 106.327,182.8135 104.9995,178.607 L92.2945,138.276 L58.2385,128.217 C53.765,126.898 53.5065,120.675 57.842,118.977 L191.8585,66.76 Z M175.059,91.0325 C176.55,89.7135 174.8175,87.3865 173.128,88.438 L99.6205,134.0265 C98.3275,134.828 97.733,136.4055 98.1895,137.862 L108.214,181.882 C108.4125,182.5545 109.3775,182.4595 109.464,181.7615 L111.705,148.2145 C111.791,147.387 112.1875,146.6285 112.8085,146.077 L175.059,91.0325 Z" id="Shape" fill="#FFFFFF"></path>
            <path d="M173.1285,88.438 C174.818,87.3865 176.5505,89.7135 175.0595,91.0325 L112.8095,146.077 C112.189,146.6285 111.7925,147.387 111.706,148.2145 L109.465,181.7615 C109.379,182.4595 108.4135,182.5545 108.215,181.882 L98.1905,137.862 C97.7335,136.4055 98.3285,134.828 99.6215,134.0265 L173.1285,88.438 Z" id="Path" fill="#9EC2E5"></path>
            <path d="M108.577,182.339 C106.9565,181.7615 105.586,180.4685 105,178.6065 L92.295,138.2755 L58.239,128.2165 C53.7655,126.8975 53.507,120.6745 57.8425,118.9765 L191.8585,66.76 C195.151,65.4755 198.5215,66.8805 200.185,69.484 C199.8745,69.01 199.504,68.5705 199.0905,68.1825 L108.1715,142.405 L108.1715,145.6545 L107.6715,145.2925 L108.1715,165.7555 L108.1715,182.167 C108.301,182.2275 108.4385,182.279 108.5765,182.322 L108.5765,182.339 L108.577,182.339 Z" id="Path" fill="#FFFFFF"></path>
            <g id="Group" transform="translate(108.000000, 68.000000)" fill="#D1D1D1">
                <path d="M93.2625,4.759 C93.2885,5.345 93.2455,5.9655 93.116,6.595 L70.231,115.9855 C69.162,121.114 63.137,123.424 58.9135,120.321 L24.3665,94.9625 L0.1715,77.6545 L0.1715,74.405 L91.0905,0.182 C91.504,0.57 91.875,1.0095 92.185,1.4835 C92.2455,1.587 92.3055,1.6815 92.366,1.7765 C92.4175,1.88 92.478,1.9835 92.53,2.078 C92.5815,2.1815 92.6335,2.285 92.6765,2.3885 C92.728,2.5005 92.7715,2.604 92.8145,2.716 C92.849,2.811 92.892,2.914 92.9265,3.0265 C93.0385,3.3625 93.1245,3.7075 93.185,4.0695 C93.2195,4.2935 93.2455,4.518 93.2625,4.759 Z" id="Path"></path>
                <path d="M24.3665,94.9625 L6.757,112.943 C6.6105,113.0895 6.4555,113.236 6.3,113.3655 C6.145,113.495 5.9895,113.607 5.826,113.719 C5.8175,113.7275 5.8175,113.7275 5.8175,113.7275 C5.49,113.943 5.154,114.124 4.8005,114.2705 C4.6195,114.3395 4.447,114.4085 4.266,114.4515 C3.516,114.6755 2.749,114.736 1.9905,114.6585 C1.7925,114.6415 1.594,114.607 1.4045,114.5725 C1.3785,114.5725 1.353,114.564 1.327,114.5555 C1.1375,114.504 0.9475,114.452 0.758,114.3915 C0.6975,114.3745 0.6375,114.357 0.577,114.3225 L0.172,97.756 L0.172,77.655 L24.3665,94.9625 Z" id="Path"></path>
            </g>
            <g id="Group" transform="translate(109.500000, 181.000000)" fill="#DADDE0">
                <path d="M4.8,0.365 C4.645,0.4945 4.4895,0.615 4.326,0.727 L4.326,0.7185 C4.49,0.6065 4.645,0.4945 4.8,0.365 Z" id="Path"></path>
                <path d="M4.326,0.7185 L4.326,0.727 C4.326,0.727 4.326,0.7185 4.3175,0.727 C4.3175,0.727 4.3175,0.727 4.326,0.7185 Z" id="Path"></path>
                <path d="M3.3005,1.2705 C3.654,1.124 3.99,0.943 4.3175,0.7275 C3.99,0.9425 3.645,1.1235 3.3005,1.2705 Z" id="Path"></path>
                <path d="M0.4905,1.658 C1.249,1.7355 2.016,1.675 2.766,1.451 C2.223,1.6235 1.6625,1.701 1.1025,1.701 C0.93,1.701 0.7575,1.6925 0.594,1.675 C0.5595,1.6755 0.525,1.6755 0.4905,1.658 Z" id="Path"></path>
            </g>
            <g id="Group" transform="translate(109.500000, 182.000000)" fill="#FFFFFF">
                <path d="M1.1025,0.701 C0.93,0.701 0.7575,0.6925 0.594,0.675 C0.7575,0.6925 0.93,0.701 1.1025,0.701 Z" id="Path"></path>
                <path d="M0.4905,0.658 C0.525,0.675 0.5595,0.675 0.594,0.675 C0.413,0.6665 0.249,0.6405 0.077,0.606 C0.2145,0.6325 0.3525,0.6495 0.4905,0.658 Z" id="Path"></path>
            </g>
            <g id="Group" transform="translate(108.500000, 182.000000)" fill="#DADDE0">
                <path d="M1.4905,0.658 C1.3525,0.6495 1.2145,0.632 1.077,0.6065 C1.0165,0.598 0.9565,0.5895 0.9045,0.572 C1.094,0.6065 1.292,0.641 1.4905,0.658 Z" id="Path"></path>
                <path d="M0.258,0.391 C0.4475,0.4515 0.6375,0.503 0.827,0.555 C0.7495,0.538 0.672,0.5205 0.5945,0.5035 C0.56,0.495 0.5255,0.4865 0.4995,0.469 C0.4215,0.4515 0.3355,0.4255 0.258,0.391 Z" id="Path"></path>
            </g>
            <g id="Group" transform="translate(108.500000, 182.000000)" fill="#FFFFFF">
                <path d="M0.594,0.503 C0.6715,0.52 0.749,0.5375 0.8265,0.5545 C0.749,0.546 0.6715,0.529 0.594,0.503 Z" id="Path"></path>
                <path d="M0.258,0.391 C0.3355,0.4255 0.422,0.4515 0.4995,0.4685 C0.37,0.4425 0.241,0.3995 0.1115,0.348 C0.163,0.365 0.206,0.3825 0.258,0.391 Z" id="Path"></path>
            </g>
            <path d="M108.758,182.391 C108.7065,182.3825 108.663,182.365 108.6115,182.348 C108.603,182.3565 108.5855,182.348 108.577,182.3395 L108.577,182.3225 C108.637,182.3565 108.6975,182.3735 108.758,182.391 Z" id="Path" fill="#DADDE0"></path>
            <path d="M108.1715,165.7555 L108.5765,182.322 C108.4385,182.279 108.3005,182.227 108.1715,182.167 L108.1715,165.7555 Z" id="Path" fill="#D1D1D1"></path>
            <polygon id="Path" fill="#DADDE0" points="108.1715 145.6545 108.1715 165.7555 107.6715 145.2925"></polygon>
            <path d="M175.059,91.0325 L112.809,146.077 C112.1885,146.6285 111.792,147.387 111.7055,148.2145 L109.4685,181.7645 C109.3825,182.4625 108.417,182.5575 108.21,181.885 L98.19,137.8625 C97.733,136.406 98.328,134.8285 99.621,134.027 L173.1285,88.4385 C174.818,87.3865 176.5505,89.714 175.059,91.0325 Z" id="Path" fill="#2C80FF"></path>
        </g>
    </g>
</svg>