<?xml version="1.0" encoding="UTF-8"?>
<svg width="28px" height="24px" viewBox="0 0 28 24" version="1.1" xmlns="http://www.w3.org/2000/svg" xmlns:xlink="http://www.w3.org/1999/xlink">
    <!-- Generator: Sketch 52.6 (67491) - http://www.bohemiancoding.com/sketch -->
    <title>Group 3 Copy</title>
    <desc>Created with Sketch.</desc>
    <defs>
        <polygon id="path-1" points="0.000182608696 0 27.9545304 0 27.9545304 23.99976 0.000182608696 23.99976"></polygon>
    </defs>
    <g id="Welcome" stroke="none" stroke-width="1" fill="none" fill-rule="evenodd">
        <g id="Home_v4@2x" transform="translate(-682.000000, -5489.000000)">
            <g id="Group-20" transform="translate(493.000000, 5419.000000)">
                <g id="Group-25" transform="translate(35.000000, 70.000000)">
                    <g id="Group-3-Copy" transform="translate(154.000000, 0.000000)">
                        <mask id="mask-2" fill="white">
                            <use xlink:href="#path-1"></use>
                        </mask>
                        <g id="Clip-2"></g>
                        <path d="M9.13548696,13.85916 C7.29357391,14.23296 6.05122609,15.79356 6.35922609,17.34456 C6.66722609,18.89496 8.41113913,19.84836 10.2524435,19.47396 C12.0937478,19.10016 13.337313,17.54016 13.0287043,15.98916 C12.7207043,14.43876 10.9767913,13.48476 9.13548696,13.85916 Z M23.877487,8.20296 C23.4410522,6.10416 21.7628783,4.44936 19.6324435,4.01976 C19.1168783,3.91476 18.6122696,4.24236 18.5063565,4.75116 C18.3998348,5.25996 18.7321826,5.75736 19.2483565,5.86236 C20.6325304,6.14196 21.7239217,7.21716 22.0075739,8.58216 C22.1140957,9.09096 22.6187043,9.41856 23.1348783,9.31416 C23.6504435,9.20916 23.9827913,8.71176 23.877487,8.20296 Z M27.9545304,8.35476 C27.9527043,3.74016 24.157487,-0.00024 19.4754,-0.00024 C18.9287913,-0.00024 18.4862696,0.43656 18.4862696,0.97476 C18.4862696,1.51416 18.9287913,1.95036 19.4754,1.95036 C23.0660957,1.95036 25.9762696,4.81956 25.9762696,8.35836 C25.9762696,8.89716 26.4194,9.33336 26.9654,9.33336 C27.5126174,9.33336 27.9545304,8.89716 27.9545304,8.35836 L27.9545304,8.35476 Z M11.3468783,21.71796 C6.87418261,22.15476 3.01322609,20.15076 2.72287826,17.23836 C2.43253043,14.32596 5.82357391,11.60976 10.2956609,11.17176 C14.7689652,10.73256 18.6299217,12.73776 18.9202696,15.64896 C19.2094,18.56256 15.8207913,21.27936 11.3468783,21.71796 Z M20.5759217,12.08256 C20.1906174,11.96616 19.9258348,11.88516 20.1279217,11.37336 C20.5649652,10.25976 20.6106174,9.29976 20.1364435,8.61456 C19.2471391,7.32996 16.8141826,7.39836 14.0257478,8.58036 C14.0257478,8.57916 13.1498348,8.96796 13.3732261,8.26476 C13.8023565,6.86976 13.7372261,5.70216 13.0707043,5.02716 C11.5580957,3.49656 7.53461739,5.08536 4.08331304,8.57436 C1.5000087,11.18796 0.000182608696,13.95816 0.000182608696,16.35336 C0.000182608696,20.93496 5.80835652,23.99976 11.4911391,23.99976 C18.9409652,23.99976 23.8963565,19.34316 23.8963565,15.86736 C23.8963565,13.76676 22.1475739,12.57516 20.5759217,12.08256 Z" id="Fill-1" fill="#2C80FF" mask="url(#mask-2)"></path>
                    </g>
                </g>
            </g>
        </g>
    </g>
</svg>